<?xml version="1.0" standalone="no"?>
<!DOCTYPE svg PUBLIC "-//W3C//DTD SVG 20010904//EN"
 "http://www.w3.org/TR/2001/REC-SVG-20010904/DTD/svg10.dtd">
<svg version="1.0" xmlns="http://www.w3.org/2000/svg"
 width="260.000000pt" height="260.000000pt" viewBox="0 0 260.000000 260.000000"
 preserveAspectRatio="xMidYMid meet">
<metadata>
Created by potrace 1.11, written by Peter Selinger 2001-2013
</metadata>
<g transform="translate(0.000000,260.000000) scale(0.100000,-0.100000)"
fill="#000000" stroke="none">
<path d="M947 2354 c-1 -1 -26 -5 -55 -8 -107 -11 -223 -56 -337 -130 -244
-159 -414 -450 -452 -771 -36 -306 46 -620 222 -850 121 -159 292 -277 470
-326 85 -23 243 -31 340 -17 253 37 510 234 645 495 l32 63 174 0 c96 0 174
-2 174 -4 0 -12 -69 -130 -101 -174 -66 -87 -110 -132 -194 -194 -95 -72 -188
-120 -303 -157 -80 -26 -83 -29 -51 -34 60 -9 212 0 284 18 228 57 433 220
568 452 38 66 107 240 107 270 0 18 -20 19 -414 18 -228 0 -416 -2 -419 -5 -3
-3 -19 -39 -36 -81 -48 -117 -129 -225 -226 -305 -210 -172 -481 -184 -704
-31 -72 49 -162 148 -213 234 -44 74 -98 214 -113 293 -14 75 -17 271 -5 338
7 37 14 74 15 82 16 86 109 281 161 336 6 7 21 25 35 41 44 53 143 126 214
159 283 131 595 19 778 -279 25 -39 55 -100 68 -134 l24 -63 422 0 421 0 -18
58 c-109 351 -351 600 -665 682 -57 15 -112 22 -193 22 -116 1 -153 -6 -86
-17 105 -16 233 -67 324 -128 60 -41 164 -141 205 -197 43 -58 102 -170 107
-200 l3 -23 -165 -1 c-135 -1 -167 2 -178 14 -8 8 -37 55 -65 103 -87 150
-233 290 -377 362 -48 24 -170 70 -193 73 -4 0 -26 4 -50 7 -41 6 -176 13
-180 9z"/>
<path d="M1030 1963 c-130 -45 -232 -167 -289 -348 -34 -104 -44 -177 -45
-325 -2 -165 29 -302 96 -432 67 -129 158 -206 276 -234 44 -10 129 -10 140 1
2 1 -14 20 -36 41 -182 184 -275 480 -238 760 26 192 121 392 240 504 25 24
32 36 23 42 -20 13 -119 8 -167 -9z"/>
</g>
</svg>
