<?xml version="1.0" standalone="no"?>
<!DOCTYPE svg PUBLIC "-//W3C//DTD SVG 20010904//EN"
 "http://www.w3.org/TR/2001/REC-SVG-20010904/DTD/svg10.dtd">
<svg version="1.0" xmlns="http://www.w3.org/2000/svg"
 width="250.000000pt" height="250.000000pt" viewBox="0 0 250.000000 250.000000"
 preserveAspectRatio="xMidYMid meet">
<metadata>
Created by potrace 1.11, written by Peter Selinger 2001-2013
</metadata>
<g transform="translate(0.000000,250.000000) scale(0.100000,-0.100000)"
fill="#000000" stroke="none">
<path d="M1145 2311 c-66 -37 -156 -87 -200 -111 -44 -23 -154 -84 -245 -133
-91 -50 -194 -107 -230 -126 -36 -20 -122 -66 -190 -104 l-125 -67 2 -148 c1
-81 2 -150 2 -153 1 -5 350 144 526 225 17 8 104 47 195 86 179 78 210 92 314
139 38 17 72 31 77 31 7 0 236 -103 447 -201 46 -22 85 -39 87 -39 2 0 32 -13
68 -30 319 -147 477 -216 478 -206 1 6 2 75 3 153 l1 142 -405 228 c-223 125
-414 233 -425 239 -58 32 -121 68 -130 74 -14 10 -126 70 -128 69 -1 -1 -56
-31 -122 -68z"/>
<path d="M1385 1619 c-59 -15 -345 -84 -395 -94 -8 -2 -69 -17 -135 -33 -66
-16 -201 -49 -300 -72 -99 -24 -229 -55 -289 -69 l-110 -27 0 -143 c-1 -79 2
-147 5 -152 3 -6 49 -2 115 10 144 27 364 69 390 75 12 2 39 7 60 10 22 4 73
13 114 21 102 21 116 23 182 35 73 13 90 16 158 30 30 6 66 13 80 15 14 3 34
7 45 9 11 2 54 9 95 16 l75 12 220 -61 c121 -34 243 -69 270 -77 137 -39 376
-104 383 -104 8 0 10 296 2 303 -5 5 -46 19 -548 196 -188 67 -343 121 -345
120 -1 0 -33 -9 -72 -20z"/>
<path d="M1089 996 c-2 -2 -31 -7 -64 -10 -33 -4 -80 -9 -105 -12 -25 -2 -58
-7 -75 -9 -16 -3 -57 -7 -90 -10 -64 -7 -91 -10 -170 -20 -27 -3 -63 -8 -80
-10 -16 -2 -57 -6 -90 -10 -33 -3 -74 -8 -91 -10 -16 -2 -59 -7 -95 -11 -35
-3 -66 -10 -69 -14 -4 -6 -5 -231 -1 -288 1 -13 72 -12 256 3 52 5 127 10 280
20 50 4 110 8 135 10 201 16 257 19 340 19 89 0 262 -9 390 -19 53 -4 138 -9
335 -20 50 -3 124 -7 165 -10 41 -2 120 -7 175 -10 54 -4 104 -7 109 -8 10 -2
16 287 6 302 -3 5 -41 12 -85 15 -44 4 -93 9 -110 11 -16 2 -66 7 -109 10 -43
4 -86 8 -95 10 -9 1 -56 6 -104 10 -48 3 -96 8 -105 10 -9 1 -53 6 -97 9 -44
4 -93 9 -110 11 -16 2 -64 7 -105 10 -41 4 -88 9 -105 11 -50 6 -231 14 -236
10z"/>
<path d="M156 298 c1 -82 4 -151 6 -154 3 -3 71 -7 149 -10 79 -2 200 -7 269
-10 165 -8 444 -8 825 0 171 4 451 8 623 11 172 2 316 6 320 9 4 2 7 71 7 153
l-1 148 -1099 1 -1100 0 1 -148z"/>
</g>
</svg>
